<svg xmlns="http://www.w3.org/2000/svg" width="1100" height="430" viewBox="0 0 1100 430" role="img">
<style>
  .title { font: 700 22px system-ui, -apple-system, Segoe UI, sans-serif; fill: #1f1f1f; }
  .label { font: 500 13px system-ui, -apple-system, Segoe UI, sans-serif; fill: #2a3142; }
  .value { font: 600 13px system-ui, -apple-system, Segoe UI, sans-serif; fill: #7A1517; }
  .axis { font: 12px system-ui, -apple-system, Segoe UI, sans-serif; fill: #6b6b6b; }
  .bar { fill: #9F1D20; }
  .line { fill: none; stroke: #9F1D20; stroke-width: 3; }
  .point { fill: #F4B41A; stroke: #7A1517; stroke-width: 1.5; }
  .axis-line { stroke: #e5dfd2; stroke-width: 1; }
</style>
<rect width="100%" height="100%" fill="#ffffff" />

<text x="24" y="34" class="title">Monthly detection trend</text>
<line x1="70" y1="70" x2="70" y2="340" class="axis-line" />
<line x1="70" y1="340" x2="1060" y2="340" class="axis-line" />
<path d="M 70.0 340.0 L 565.0 332.5 L 1060.0 70.0" class="line" />
<circle cx="70.0" cy="340.0" r="4" class="point" />
<title>2021-12: 0.0%</title>
<circle cx="565.0" cy="332.5" r="4" class="point" />
<title>2022-01: 0.4%</title>
<circle cx="1060.0" cy="70.0" r="4" class="point" />
<title>2026-05: 15.5%</title>
<line x1="66" y1="340.0" x2="70" y2="340.0" class="axis-line" />
<text x="12" y="344.0" class="axis">0.0%</text>
<line x1="66" y1="286.0" x2="70" y2="286.0" class="axis-line" />
<text x="12" y="290.0" class="axis">3.1%</text>
<line x1="66" y1="232.0" x2="70" y2="232.0" class="axis-line" />
<text x="12" y="236.0" class="axis">6.2%</text>
<line x1="66" y1="178.0" x2="70" y2="178.0" class="axis-line" />
<text x="12" y="182.0" class="axis">9.3%</text>
<line x1="66" y1="124.0" x2="70" y2="124.0" class="axis-line" />
<text x="12" y="128.0" class="axis">12.4%</text>
<line x1="66" y1="70.0" x2="70" y2="70.0" class="axis-line" />
<text x="12" y="74.0" class="axis">15.5%</text>
<text x="70.0" y="372" class="axis rotated" transform="rotate(-35 70.0,372)">2021-12</text>
<text x="565.0" y="372" class="axis rotated" transform="rotate(-35 565.0,372)">2022-01</text>
<text x="1060.0" y="372" class="axis rotated" transform="rotate(-35 1060.0,372)">2026-05</text>
<text x="24" y="64" class="axis">Detection rate by collection period</text>
</svg>